PathFileType	4	(X/Y/Z)	Run_300 02
DataRate	CameraRate	NumFrames	NumMarkers	Units	OrigDataRate	OrigDataStartFrame	OrigNumFrames
100	100	8	42	mm	100	58	128
Frame#	Time	LASI			RASI			LPSI			RPSI			RTH1			RTH2			RTH3			LTH1			LTH2			LTH3			RTB1			RTB2			RTB3			LTB1			LTB2			LTB3			RCAL			RTOE			RMT5			LCAL			LTOE			LMT5			LACR			RACR			CLAV			C7			RUA1			RUA2			RUA3			RLEL			RMEL			LUA1			LUA2			LUA3			LLEL			LMEL			RFAsuperior			RFAradius			RFAulna			LFAsuperior			LFAradius			LFAulna			
		X1	Y1	Z1	X2	Y2	Z2	X3	Y3	Z3	X4	Y4	Z4	X5	Y5	Z5	X6	Y6	Z6	X7	Y7	Z7	X8	Y8	Z8	X9	Y9	Z9	X10	Y10	Z10	X11	Y11	Z11	X12	Y12	Z12	X13	Y13	Z13	X14	Y14	Z14	X15	Y15	Z15	X16	Y16	Z16	X17	Y17	Z17	X18	Y18	Z18	X19	Y19	Z19	X20	Y20	Z20	X21	Y21	Z21	X22	Y22	Z22	X23	Y23	Z23	X24	Y24	Z24	X25	Y25	Z25	X26	Y26	Z26	X27	Y27	Z27	X28	Y28	Z28	X29	Y29	Z29	X30	Y30	Z30	X31	Y31	Z31	X32	Y32	Z32	X33	Y33	Z33	X34	Y34	Z34	X35	Y35	Z35	X36	Y36	Z36	X37	Y37	Z37	X38	Y38	Z38	X39	Y39	Z39	X40	Y40	Z40	X41	Y41	Z41	X42	Y42	Z42	

55	0.97	919.502888	958.400842	-433.877359	925.659698	960.037778	-191.826219	759.279648	1008.517812	-356.923545	757.561287	1002.848655	-258.913102	942.564435	738.970765	-131.569225	1037.024973	691.507463	-144.815471	1026.618651	588.378883	-154.978854	876.982534	757.202189	-472.889594	925.911885	650.380278	-448.51819	861.060875	545.0705349999999	-426.273638	970.031057	430.285555	-221.363537	887.581721	429.760046	-165.732001	792.567951	368.459842	-220.500067	849.527601	346.669931	-345.115731	768.016896	292.489859	-398.509345	733.604163	194.159045	-320.140026	659.510427	420.530458	-232.539247	711.56227	206.947233	-249.939653	674.3183	238.550458	-145.863586	574.2172440000001	120.236484	-301.120956	788.966405	65.975317	-298.882377	737.540939	50.293765	-399.14669	934.947761	1432.862852	-474.051836	921.4789939999999	1438.454996	-173.15197	1008.985274	1356.559629	-301.455196	880.330069	1468.975754	-321.956799	839.135507	1354.790061	-78.66165599999999	759.510619	1319.954172	-113.48507	764.752425	1261.187277	-39.949908	713.066651	1214.724747	-12.835136	685.576668	1195.67183	-83.05280999999999	894.8281919999999	1319.724024	-565.43904	842.762187	1253.171114	-547.242216	890.618912	1225.88689	-612.023246	878.950472	1145.387331	-647.755683	844.9775550000001	1112.133725	-588.6447449999999	803.497607	1139.678696	-7.035793	901.784582	1061.330702	-71.951874	851.418325	1021.291628	-39.581181	984.852966	1160.302312	-592.360151	1070.949623	1133.115846	-480.465045	1090.427931	1097.865627	-535.326987	
56	0.98	917.969863	960.254668	-434.977061	926.421127	964.599721	-193.117378	758.8545360000001	1012.626155	-356.978949	756.8564229999999	1008.243413	-258.621996	948.747399	748.943384	-130.55227	1044.578009	705.232975	-145.55616	1037.548044	601.102151	-155.048837	867.002755	758.96083	-471.561246	910.252562	649.655342	-448.379367	840.542064	547.56443	-425.061423	988.897753	436.358674	-220.651205	906.673258	430.236165	-167.616814	816.854107	361.076898	-222.089088	823.196307	348.98849	-343.712389	741.0919270000001	296.625485	-398.191548	707.133407	198.081887	-321.385332	679.037418	401.829608	-234.859456	752.292458	194.099935	-252.345165	711.371437	221.618228	-148.989319	546.8325630000001	126.864418	-302.013273	759.101586	65.807604	-298.823633	706.841194	49.81032	-398.936206	936.543245	1438.913489	-471.980439	920.143187	1442.7823	-172.094844	1008.797886	1361.336309	-299.655831	880.301147	1473.508257	-320.583987	833.6052	1362.163238	-79.60151500000001	754.766493	1328.748718	-117.297533	756.0482469999999	1269.966512	-43.459843	702.6792840000001	1224.598448	-18.181003	676.499651	1206.281925	-88.896334	899.265343	1326.082007	-564.702762	846.827625	1259.547655	-550.834262	898.99888	1232.182628	-612.998037	888.529675	1151.270254	-647.869953	853.751834	1117.714135	-589.528282	791.731138	1148.335256	-10.536298	889.807622	1068.546826	-73.375592	838.008349	1028.880193	-42.889672	992.289833	1169.550981	-589.794449	1076.468993	1148.180265	-474.899492	1097.915664	1110.564775	-527.267937	
57	0.99	916.7037800000001	962.290543	-436.189086	927.525352	969.853502	-194.224043	758.937501	1017.246609	-357.557403	756.4385579999999	1014.346094	-258.280004	954.149529	759.221005	-129.617856	1050.971752	718.66916	-146.185883	1046.779454	613.678149	-155.020868	857.3430049999999	762.071741	-470.143352	895.497947	651.352065	-447.950784	821.70566	551.945064	-424.063345	1006.711534	442.249028	-220.274846	924.961796	429.92705	-169.43056	841.402682	352.982487	-223.911357	798.170145	353.292789	-342.755045	715.080347	302.83669	-398.045356	681.494561	203.787805	-321.876736	699.898624	381.396861	-237.743485	794.136524	181.729793	-254.529372	749.868264	204.954626	-152.22646	520.90918	135.591706	-303.087546	729.655542	65.270403	-298.715952	676.155659	49.3115	-398.733972	938.326829	1445.386115	-469.800112	919.06276	1447.539137	-170.989081	1008.87786	1366.628138	-297.694151	880.9612969999999	1478.656248	-319.446664	828.86925	1369.894693	-80.69394800000001	750.967406	1337.760377	-120.994027	748.56983	1278.989956	-46.93487	693.583201	1234.665279	-23.399619	668.547068	1217.194419	-94.549685	902.996719	1332.892268	-563.634989	850.259128	1266.822476	-553.364009	906.822197	1239.307941	-613.8609760000001	897.169247	1157.952944	-647.5027219999999	861.300848	1124.225678	-590.2384049999999	781.0449589999999	1157.106107	-14.065114	879.01536	1076.300282	-74.988508	825.927963	1036.955646	-46.518811	998.570385	1179.036095	-586.599187	1080.129141	1162.967009	-469.045562	1103.93606	1123.523861	-519.327871	
58	1	915.870749	964.8797489999999	-437.439105	928.867678	976.024521	-195.121136	759.526098	1022.301728	-358.346522	756.579938	1020.986133	-257.964808	958.576433	769.414224	-128.835353	1056.179786	731.351227	-146.628607	1054.176135	625.663687	-155.012207	849.110107	766.389872	-468.795145	882.9818299999999	654.902003	-446.893442	804.918282	557.909953	-423.622771	1023.509581	447.740317	-220.47113	942.59628	428.690059	-171.121953	866.486261	344.369685	-226.049971	774.915534	359.264234	-343.233983	690.466867	310.774915	-398.503388	656.886438	211.000976	-322.090659	722.619352	359.52447	-241.302309	837.059112	170.35379	-256.805254	789.596841	188.934177	-155.507784	496.804886	146.153256	-304.378149	700.576387	64.272081	-298.689245	645.749164	48.951426	-398.826921	940.231041	1452.10844	-467.619691	918.254971	1452.630763	-169.827501	1009.254934	1372.357003	-295.621561	881.8629560000001	1484.160787	-318.413603	825.103657	1377.698342	-81.75768100000001	748.119637	1346.842164	-124.477513	742.307007	1288.089751	-50.373329	685.785059	1244.751912	-28.447842	661.87875	1228.267848	-100.189932	906.436225	1340.087323	-562.447349	853.604062	1274.699715	-554.82134	913.660875	1246.849886	-613.647016	904.826809	1165.086013	-646.77131	867.586771	1131.188808	-590.790376	771.4208640000001	1165.673851	-17.551728	869.3693919999999	1084.139736	-76.73505299999999	815.148741	1045.014252	-50.254675	1003.817777	1188.647816	-583.275124	1082.159013	1177.21921	-463.405342	1108.750822	1136.489755	-512.076644	
59	1.01	915.744029	968.1368629999999	-438.378271	930.278054	983.046827	-195.770106	760.594784	1027.650766	-358.941111	757.530293	1027.964296	-258.062325	962.006421	779.248894	-128.229193	1060.211743	742.850232	-146.857722	1059.614205	636.610417	-155.186551	842.864727	771.3821819999999	-467.640905	872.942304	659.306908	-445.429242	790.034016	564.965458	-423.993634	1039.259785	452.627512	-221.173167	959.812541	426.2817	-172.887118	892.231613	335.438583	-228.685224	753.449887	366.463921	-345.204852	667.5845420000001	319.955897	-399.940046	633.935622	219.165634	-323.201831	747.423266	336.55481	-245.53153	880.995912	160.374753	-259.501618	830.581328	173.828141	-158.924586	474.911592	158.151684	-305.989096	671.697717	63.004474	-298.806612	615.847746	48.778903	-399.200147	942.213402	1458.953818	-465.524261	917.699892	1457.986798	-168.643053	1009.85117	1378.453928	-293.523131	882.690822	1489.801719	-317.408124	822.319034	1385.405125	-82.537757	746.181832	1355.848451	-127.620853	737.188804	1297.087116	-53.753245	679.2058029999999	1254.69717	-33.333319	656.6273200000001	1239.371574	-105.863646	909.922311	1347.624328	-561.351589	857.196179	1282.773009	-555.609906	919.232854	1254.469446	-611.952615	911.407751	1172.370402	-645.92412	872.652866	1138.235663	-591.130256	762.903334	1173.932113	-21.035194	860.9281109999999	1091.791358	-78.634901	805.641448	1052.789309	-54.134151	1008.151709	1198.26419	-580.362013	1083.112099	1190.717991	-458.543304	1112.521682	1149.14949	-505.785851	
60	1.02	916.547476	971.853251	-438.605161	931.635033	990.545027	-196.035922	762.127973	1033.154466	-359.201342	759.266432	1035.029048	-258.824073	964.552676	788.524577	-127.749877	1063.083299	752.8331930000001	-146.896813	1063.048554	646.145859	-155.692327	838.434848	776.530887	-466.759213	864.661054	663.885069	-444.26402	776.738655	572.6504169999999	-425.265416	1053.861164	456.754448	-222.156439	976.818575	422.637113	-174.906746	918.595237	326.388309	-231.91827	733.685772	374.454653	-348.314496	646.4935860000001	330.045194	-402.544941	613.277494	227.723076	-326.196826	774.255216	312.901964	-250.163674	925.754592	152.039153	-262.765812	872.9566610000001	159.911804	-162.635925	455.611948	171.18491	-308.074722	642.962048	61.879237	-299.12035	586.550606	48.83933	-399.679742	944.28287	1465.77893	-463.560039	917.3497640000001	1463.521917	-167.518298	1010.573837	1384.798544	-291.494604	883.4280670000001	1495.451853	-316.422543	820.379225	1392.901347	-82.819265	745.120005	1364.631181	-130.339253	733.147256	1305.773232	-57.022662	673.756582	1264.277631	-38.073222	652.8741690000001	1250.244532	-111.481484	913.634589	1355.344337	-560.5015529999999	861.0269039999999	1290.723285	-556.123781	923.62366	1261.946657	-609.51136	916.834557	1179.585503	-645.142264	876.702962	1145.192431	-591.146856	755.5925140000001	1181.827091	-24.56124	853.792222	1099.081625	-80.688215	797.352573	1060.228386	-58.247678	1011.666606	1207.62761	-578.044048	1083.542187	1203.223108	-454.767411	1115.366178	1161.132417	-500.277561	
61	1.03	918.306429	975.685591	-437.96293	932.907165	997.996356	-195.775177	764.170111	1038.690088	-359.346108	761.425747	1041.896606	-259.993723	966.310509	796.94643	-127.254082	1064.789186	761.1262809999999	-146.818349	1064.531549	654.0358639999999	-156.627169	835.163727	781.591459	-466.188827	857.195152	668.483055	-444.060095	764.730114	580.641513	-427.262396	1067.199604	460.064709	-223.280637	993.639435	417.997913	-177.084364	945.416682	317.421534	-235.567856	715.611485	382.852211	-352.26606	627.049577	340.828999	-406.166198	595.082823	236.309957	-331.154213	802.978852	289.020128	-254.776549	971.021153	145.56673	-266.544273	916.71647	147.469093	-166.726249	439.144651	184.990706	-310.890368	614.61026	61.28795	-299.728947	557.888616	49.386663	-400.213448	946.464439	1472.395566	-461.708264	917.167583	1469.069243	-166.561757	1011.391547	1391.184886	-289.612661	884.234527	1501.017663	-315.487342	819.0951690000001	1400.06494	-82.557951	744.8414299999999	1373.087376	-132.568163	730.1125469999999	1313.921375	-60.113944	669.371596	1273.229524	-42.644692	650.5505879999999	1260.454805	-116.915032	917.572585	1362.96974	-559.923778	864.774573	1298.432234	-556.434599	927.129504	1269.143507	-607.471737	921.1073270000001	1186.56013	-644.423348	879.994442	1152.015263	-590.753142	749.562445	1189.266682	-28.126223	848.016508	1105.875234	-82.845145	790.259583	1067.336494	-62.593561	1014.449869	1216.391	-576.1897	1083.742613	1214.530591	-452.00876	1117.446306	1172.083477	-495.185446	
62	1.04	920.801944	979.351272	-436.637742	934.109023	1004.907025	-194.980029	766.797525	1044.13373	-359.738798	763.606448	1048.32973	-261.039365	967.21712	804.000494	-126.613273	1065.306817	767.675127	-146.720548	1064.194026	660.165672	-158.028601	832.339396	786.5105139999999	-465.926551	849.9472469999999	673.109112	-445.009251	753.745401	588.703699	-429.550798	1079.19989	462.587724	-224.510451	1010.061966	412.737243	-179.059773	972.468791	308.726486	-239.149968	699.282319	391.301105	-356.771141	609.197989	351.970261	-410.341361	578.929964	244.795947	-337.27571	833.460768	265.358491	-259.011347	1016.387087	141.304425	-270.66984	961.540696	136.69361	-171.155255	425.364312	199.51403	-314.794796	587.104597	61.534484	-300.753959	529.969196	50.994055	-400.953195	948.72111	1478.589898	-459.907227	917.154575	1474.353161	-165.876914	1012.316475	1397.334736	-287.915665	885.243015	1506.345531	-314.676326	818.2969849999999	1406.765285	-81.9503	745.1200229999999	1381.119673	-134.294136	727.974507	1321.31252	-62.953788	665.98758	1281.299488	-46.95063	649.388912	1269.568048	-122.040479	921.546293	1370.20165	-559.509352	867.992356	1305.877688	-556.369403	929.944136	1275.947377	-606.284408	924.314691	1193.120724	-643.678931	882.635494	1158.629624	-589.989345	744.7636230000001	1196.095057	-31.668017	843.552985	1112.056855	-85.037516	784.448079	1074.041641	-67.060773	1016.597291	1224.243112	-574.621855	1083.735693	1224.457774	-449.97129	1118.985549	1181.747298	-490.388157	
